<svg id="Livello_1" data-name="Livello 1" xmlns="http://www.w3.org/2000/svg" viewBox="0 0 151 41"><defs><style>.cls-1{fill:#5d78ff;}.cls-2{fill:#293248;}</style></defs><path class="cls-1" d="M33.11,31.63c.13.15.37.43.51.62l5.69,7.18a.71.71,0,0,1-.6,1.09c-1.34,0-3,0-4.23,0-.41,0-1,0-1.48,0a1,1,0,0,1-1-1c0-1.74-.08-5.44-.11-7.22v-.77a.25.25,0,0,1,.32-.24l.64.18a.58.58,0,0,1,.25.15Z"/><path class="cls-1" d="M55.78.39H49.34a.69.69,0,0,0-.71.67v2.3a.54.54,0,0,1-.83.42A21.63,21.63,0,0,0,36.08.39C24.62.39,15.3,9.1,15,20c-.19,7.23,2.92,13.62,8.29,17.3a.4.4,0,0,0,.62-.33V20.71c0-6.06,3.91-10.93,8.58-12,9.84-2.27,17.61,6.39,14.16,15.75a11.87,11.87,0,0,1-2.32,3.64,13.51,13.51,0,0,1-2.51,2.05.59.59,0,0,0-.14.89l6.9,8.17c.71.81,1.19,1.37,2.09,1.37l4.61,0a1.21,1.21,0,0,0,1.21-1.2V1.06A.69.69,0,0,0,55.78.39Z"/><circle class="cls-1" cx="35.74" cy="20.49" r="4.64"/><path class="cls-2" d="M74.1,6.46V7.94a6,6,0,0,0-1.47-1.06,6,6,0,0,0-2.8-.63,6.22,6.22,0,0,0-3.24.87,6.3,6.3,0,0,0-2.32,2.45,7.5,7.5,0,0,0-.84,3.6,7.71,7.71,0,0,0,.84,3.63,6.42,6.42,0,0,0,2.3,2.51,6,6,0,0,0,3.21.9,6.09,6.09,0,0,0,2.81-.64,6.16,6.16,0,0,0,1.51-1.09V20h3.22V6.46Zm-.53,9a3.56,3.56,0,0,1-5,1.42,3.72,3.72,0,0,1-1.37-1.46,4.58,4.58,0,0,1-.53-2.24A4.43,4.43,0,0,1,67.22,11a3.5,3.5,0,0,1,1.36-1.39,3.62,3.62,0,0,1,1.82-.48,3.52,3.52,0,0,1,1.81.49A3.58,3.58,0,0,1,73.57,11a4.47,4.47,0,0,1,.53,2.22A4.54,4.54,0,0,1,73.57,15.45Z"/><path class="cls-2" d="M103.74,6.46V7.94a6.16,6.16,0,0,0-1.46-1.06,6,6,0,0,0-2.81-.63,6.19,6.19,0,0,0-5.55,3.32,7.56,7.56,0,0,0-.85,3.6,7.74,7.74,0,0,0,.85,3.63,6.42,6.42,0,0,0,2.3,2.51,5.85,5.85,0,0,0,1.61.69,6.05,6.05,0,0,0,1.6.21,6.5,6.5,0,0,0,1.68-.21,5.8,5.8,0,0,0,2.63-1.52V20H107V6.46Zm-.52,9a3.57,3.57,0,0,1-6.35,0,4.58,4.58,0,0,1-.53-2.24A4.43,4.43,0,0,1,96.87,11a3.5,3.5,0,0,1,1.36-1.39A3.58,3.58,0,0,1,100,9.09a3.53,3.53,0,0,1,1.82.49A3.65,3.65,0,0,1,103.22,11a4.47,4.47,0,0,1,.52,2.22A4.54,4.54,0,0,1,103.22,15.45Z"/><path class="cls-2" d="M133,6.46V7.94a6.16,6.16,0,0,0-1.46-1.06,6,6,0,0,0-2.81-.63,6.16,6.16,0,0,0-5.55,3.32,7.56,7.56,0,0,0-.85,3.6,7.74,7.74,0,0,0,.85,3.63,6.35,6.35,0,0,0,2.3,2.51,5.6,5.6,0,0,0,1.61.69,6,6,0,0,0,1.6.21A6.5,6.5,0,0,0,130.4,20a5.87,5.87,0,0,0,1.13-.43,6.1,6.1,0,0,0,1.5-1.09V20h3.22V6.46Zm-.52,9a3.68,3.68,0,0,1-1.36,1.43,3.58,3.58,0,0,1-5-1.47,4.58,4.58,0,0,1-.53-2.24,4.54,4.54,0,0,1,.52-2.21,3.6,3.6,0,0,1,3.18-1.87,3.53,3.53,0,0,1,1.82.49A3.72,3.72,0,0,1,132.51,11a4.47,4.47,0,0,1,.52,2.22A4.54,4.54,0,0,1,132.51,15.45Z"/><path class="cls-2" d="M89.88,8a5.78,5.78,0,0,0-1.95-1.38,6.72,6.72,0,0,0-2.66-.48,6.51,6.51,0,0,0-3,.77V.59H79V15a5,5,0,0,0,1.82,4.08,5.4,5.4,0,0,0,1.63.9,7.29,7.29,0,0,0,2.5.4,6.68,6.68,0,0,0,2.36-.4,6.26,6.26,0,0,0,2.4-1.56,7.43,7.43,0,0,0,2-5.38A7.13,7.13,0,0,0,89.88,8Zm-2.37,8a2.89,2.89,0,0,1-2.37,1.24c-1.93,0-2.89-.77-2.89-2.32V10.26a4.41,4.41,0,0,1,.66-.43A4.38,4.38,0,0,1,85,9.19a3.51,3.51,0,0,1,2.48.86,3.76,3.76,0,0,1,1,2.86A5,5,0,0,1,87.51,16.06Z"/><path class="cls-2" d="M117.45,20V13.18q0-3.87-2.34-3.87a3.44,3.44,0,0,0-2.92,1.8v7.52a12.35,12.35,0,0,0,.06,1.37H109V6.54h3.2V7.72a5.74,5.74,0,0,1,3.72-1.44,4.36,4.36,0,0,1,3.45,1.47,5.61,5.61,0,0,1,1.3,3.87v5.25c0,1.48,0,2.38.06,2.67a2.22,2.22,0,0,0,.11.46Z"/><path class="cls-2" d="M69.84,27.44v-1H66.61V40.2h3.28a14.08,14.08,0,0,1,0-1.47V30.61a3.1,3.1,0,0,1,1-1,2.06,2.06,0,0,1,1.12-.38,2,2,0,0,1,1.92.82l.05,0,.24-3.54a5,5,0,0,0-2-.31A3.18,3.18,0,0,0,69.84,27.44Z"/><path class="cls-2" d="M86.94,28.18a6.63,6.63,0,0,0-5.09-2,6.87,6.87,0,0,0-5.24,2.14,7,7,0,0,0-1.41,2.31,7.91,7.91,0,0,0-.5,2.78,7,7,0,0,0,1.73,4.91,7.51,7.51,0,0,0,10.45,0,7.24,7.24,0,0,0,1.86-5.09A7,7,0,0,0,86.94,28.18Zm-2.49,8.09a3.16,3.16,0,0,1-2.6,1.18A3.71,3.71,0,0,1,79,36.25a4,4,0,0,1-.79-1.33,4.9,4.9,0,0,1-.27-1.61,4.52,4.52,0,0,1,.92-2.89,3.38,3.38,0,0,1,2.81-1.29,3.43,3.43,0,0,1,2.78,1.21,4.51,4.51,0,0,1,1,3A4.54,4.54,0,0,1,84.45,36.27Z"/><path class="cls-2" d="M101.4,35.67A3.24,3.24,0,0,1,100,36.89a5.28,5.28,0,0,1-1.12.4,6.07,6.07,0,0,1-1.43.14,4,4,0,0,1-1.57-.31q-2.13-.94-2.13-4a4.1,4.1,0,0,1,.92-2.79,3.46,3.46,0,0,1,1.11-.81,4.48,4.48,0,0,1,1.78-.29,7,7,0,0,1,2.27.4,3.08,3.08,0,0,1,1.33,1l.09,0,.53-3.38a7.39,7.39,0,0,0-4.09-1.07,7,7,0,0,0-7.44,7.37,6.6,6.6,0,0,0,2,5,6.92,6.92,0,0,0,5,1.86,6.27,6.27,0,0,0,4.62-1.48l-.3-3.21Z"/><path class="cls-2" d="M117.67,40.2h-4.21l-4-5.81L107,37.05v1.41a12.6,12.6,0,0,0,.09,1.74h-3.32V21.35H107V32.9l6-6.47h3.92l-5.2,5.47,3,4c.64,1,1.12,1.77,1.45,2.25l.87,1.22A8.45,8.45,0,0,0,117.67,40.2Z"/><path class="cls-2" d="M127.26,32.46a8.93,8.93,0,0,0-2.47-.64,8.09,8.09,0,0,1-2.56-.74.82.82,0,0,1-.5-.76c0-1,.8-1.45,2.4-1.45a5.77,5.77,0,0,1,1.1.1,4.22,4.22,0,0,1,2.59,1.27q.18.27.21.27s0,0,0-.1l.3-.78c.1-.26.25-.67.45-1.25.07-.21.14-.43.2-.66a8.2,8.2,0,0,0-9-.4,3.81,3.81,0,0,0-1.58,3.23,3.53,3.53,0,0,0,1.12,2.73,5.16,5.16,0,0,0,1.57.95,10.5,10.5,0,0,0,2.47.6,7.67,7.67,0,0,1,2.29.6.77.77,0,0,1,.43.73c0,1-.76,1.51-2.28,1.51a10,10,0,0,1-3.27-.54,7.24,7.24,0,0,1-1.28-.58,3.24,3.24,0,0,1-.75-.56q-.19-.23-.21-.21a1.45,1.45,0,0,0,0,.25c0,.15-.06.54-.13,1.17l-.12.95c0,.33-.06.63-.08.89a9.54,9.54,0,0,0,5.6,1.36,6.83,6.83,0,0,0,4.34-1.23,3.65,3.65,0,0,0,1.49-3,3.86,3.86,0,0,0-.95-2.73A4.2,4.2,0,0,0,127.26,32.46Z"/></svg>